<svg xmlns="http://www.w3.org/2000/svg" width="226.19" height="35" viewBox="0 0 226.19 35"><rect class="svg__rect" x="0" y="0" width="117.68" height="35" fill="#31C4F3"/><rect class="svg__rect" x="115.68" y="0" width="110.50999999999999" height="35" fill="#389AD5"/><path class="svg__text" d="M15.70 22L14.22 22L14.22 13.47L19.64 13.47L19.64 14.66L15.70 14.66L15.70 17.20L19.13 17.20L19.13 18.38L15.70 18.38L15.70 22ZM23.53 18.00L23.53 18.00L23.53 17.52Q23.53 16.28 23.97 15.32Q24.41 14.37 25.22 13.86Q26.02 13.35 27.07 13.35Q28.11 13.35 28.92 13.85Q29.72 14.35 30.16 15.29Q30.60 16.23 30.61 17.48L30.61 17.48L30.61 17.96Q30.61 19.21 30.17 20.16Q29.74 21.10 28.93 21.61Q28.13 22.12 27.08 22.12L27.08 22.12Q26.04 22.12 25.23 21.61Q24.42 21.10 23.98 20.17Q23.53 19.23 23.53 18.00ZM25.01 17.46L25.01 17.96Q25.01 19.36 25.56 20.13Q26.11 20.90 27.08 20.90L27.08 20.90Q28.06 20.90 28.59 20.15Q29.12 19.40 29.12 17.96L29.12 17.96L29.12 17.51Q29.12 16.09 28.59 15.34Q28.05 14.58 27.07 14.58L27.07 14.58Q26.11 14.58 25.56 15.33Q25.02 16.09 25.01 17.46L25.01 17.46ZM40.43 22L35.07 22L35.07 13.47L36.55 13.47L36.55 20.82L40.43 20.82L40.43 22ZM49.91 22L44.55 22L44.55 13.47L46.03 13.47L46.03 20.82L49.91 20.82L49.91 22ZM53.76 18.00L53.76 18.00L53.76 17.52Q53.76 16.28 54.20 15.32Q54.65 14.37 55.45 13.86Q56.26 13.35 57.30 13.35Q58.34 13.35 59.15 13.85Q59.96 14.35 60.39 15.29Q60.83 16.23 60.84 17.48L60.84 17.48L60.84 17.96Q60.84 19.21 60.41 20.16Q59.97 21.10 59.17 21.61Q58.36 22.12 57.31 22.12L57.31 22.12Q56.28 22.12 55.46 21.61Q54.65 21.10 54.21 20.17Q53.77 19.23 53.76 18.00ZM55.24 17.46L55.24 17.96Q55.24 19.36 55.79 20.13Q56.34 20.90 57.31 20.90L57.31 20.90Q58.30 20.90 58.83 20.15Q59.36 19.40 59.36 17.96L59.36 17.96L59.36 17.51Q59.36 16.09 58.82 15.34Q58.29 14.58 57.30 14.58L57.30 14.58Q56.34 14.58 55.80 15.33Q55.26 16.09 55.24 17.46L55.24 17.46ZM66.69 22L64.72 13.47L66.19 13.47L67.51 19.88L69.14 13.47L70.39 13.47L72.00 19.89L73.31 13.47L74.78 13.47L72.81 22L71.39 22L69.77 15.77L68.11 22L66.69 22ZM86.31 22L84.83 22L84.83 13.47L86.75 13.47L89.21 20.01L91.67 13.47L93.58 13.47L93.58 22L92.11 22L92.11 19.19L92.25 15.43L89.73 22L88.67 22L86.16 15.43L86.31 19.19L86.31 22ZM103.90 22L98.32 22L98.32 13.47L103.86 13.47L103.86 14.66L99.81 14.66L99.81 17.02L103.31 17.02L103.31 18.19L99.81 18.19L99.81 20.82L103.90 20.82L103.90 22Z" fill="#FFFFFF"/><path class="svg__text" d="M136.25 22L129.87 22L129.87 13.60L132.25 13.60L132.25 20.11L136.25 20.11L136.25 22ZM143.05 22L140.67 22L140.67 13.60L143.05 13.60L143.05 22ZM150.56 22L148.23 22L148.23 13.60L150.18 13.60L153.89 18.07L153.89 13.60L156.22 13.60L156.22 22L154.27 22L150.56 17.52L150.56 22ZM163.74 22L161.38 22L161.38 13.60L163.74 13.60L163.74 17.09L166.99 13.60L169.60 13.60L166.17 17.32L169.78 22L167.02 22L164.62 18.95L163.74 19.90L163.74 22ZM180.63 22L173.89 22L173.89 13.60L180.48 13.60L180.48 15.44L176.24 15.44L176.24 16.85L179.98 16.85L179.98 18.63L176.24 18.63L176.24 20.17L180.63 20.17L180.63 22ZM189.41 22L185.44 22L185.44 13.60L189.41 13.60Q190.79 13.60 191.86 14.12Q192.93 14.63 193.52 15.58Q194.10 16.53 194.10 17.80L194.10 17.80Q194.10 19.07 193.52 20.02Q192.93 20.97 191.86 21.48Q190.79 22 189.41 22L189.41 22ZM187.82 15.50L187.82 20.10L189.32 20.10Q190.40 20.10 191.05 19.49Q191.70 18.88 191.70 17.80L191.70 17.80Q191.70 16.72 191.05 16.11Q190.40 15.50 189.32 15.50L189.32 15.50L187.82 15.50ZM201.21 22L198.83 22L198.83 13.60L201.21 13.60L201.21 22ZM208.72 22L206.39 22L206.39 13.60L208.34 13.60L212.05 18.07L212.05 13.60L214.38 13.60L214.38 22L212.43 22L208.72 17.52L208.72 22Z" fill="#FFFFFF" x="128.68"/></svg>