<svg xmlns="http://www.w3.org/2000/svg" width="211.88" height="35" viewBox="0 0 211.88 35"><rect class="svg__rect" x="0" y="0" width="115.31" height="35" fill="#7531F3"/><rect class="svg__rect" x="113.31" y="0" width="98.57" height="35" fill="#A76EDC"/><path class="svg__text" d="M15.69 22L14.22 22L14.22 13.47L16.14 13.47L18.60 20.01L21.06 13.47L22.97 13.47L22.97 22L21.49 22L21.49 19.19L21.64 15.43L19.12 22L18.06 22L15.55 15.43L15.69 19.19L15.69 22ZM28.49 22L26.95 22L30.17 13.47L31.50 13.47L34.73 22L33.18 22L32.49 20.01L29.18 20.01L28.49 22ZM30.83 15.28L29.60 18.82L32.07 18.82L30.83 15.28ZM41.14 22L38.69 22L38.69 13.47L41.21 13.47Q42.34 13.47 43.21 13.97Q44.09 14.48 44.57 15.40Q45.05 16.33 45.05 17.52L45.05 17.52L45.05 17.95Q45.05 19.16 44.57 20.08Q44.08 21.00 43.19 21.50Q42.30 22 41.14 22L41.14 22ZM40.17 14.66L40.17 20.82L41.14 20.82Q42.30 20.82 42.93 20.09Q43.55 19.36 43.56 17.99L43.56 17.99L43.56 17.52Q43.56 16.13 42.96 15.40Q42.35 14.66 41.21 14.66L41.21 14.66L40.17 14.66ZM55.09 22L49.51 22L49.51 13.47L55.05 13.47L55.05 14.66L51.00 14.66L51.00 17.02L54.50 17.02L54.50 18.19L51.00 18.19L51.00 20.82L55.09 20.82L55.09 22ZM66.65 22L64.68 13.47L66.15 13.47L67.47 19.88L69.10 13.47L70.34 13.47L71.96 19.89L73.27 13.47L74.74 13.47L72.77 22L71.35 22L69.73 15.77L68.07 22L66.65 22ZM80.38 22L78.90 22L78.90 13.47L80.38 13.47L80.38 22ZM86.87 14.66L84.23 14.66L84.23 13.47L91.00 13.47L91.00 14.66L88.34 14.66L88.34 22L86.87 22L86.87 14.66ZM96.24 22L94.75 22L94.75 13.47L96.24 13.47L96.24 17.02L100.05 17.02L100.05 13.47L101.53 13.47L101.53 22L100.05 22L100.05 18.21L96.24 18.21L96.24 22Z" fill="#FFFFFF"/><path class="svg__text" d="M134.24 22L127.50 22L127.50 13.60L134.09 13.60L134.09 15.44L129.85 15.44L129.85 16.85L133.59 16.85L133.59 18.63L129.85 18.63L129.85 20.17L134.24 20.17L134.24 22ZM138.62 17.80L138.62 17.80Q138.62 16.54 139.22 15.54Q139.81 14.55 140.87 13.99Q141.92 13.43 143.24 13.43L143.24 13.43Q144.39 13.43 145.31 13.84Q146.24 14.25 146.85 15.02L146.85 15.02L145.34 16.39Q144.53 15.40 143.36 15.40L143.36 15.40Q142.67 15.40 142.14 15.70Q141.61 16 141.31 16.54Q141.02 17.09 141.02 17.80L141.02 17.80Q141.02 18.51 141.31 19.05Q141.61 19.60 142.14 19.90Q142.67 20.20 143.36 20.20L143.36 20.20Q144.53 20.20 145.34 19.22L145.34 19.22L146.85 20.58Q146.24 21.35 145.32 21.76Q144.39 22.17 143.24 22.17L143.24 22.17Q141.92 22.17 140.87 21.61Q139.81 21.05 139.22 20.05Q138.62 19.06 138.62 17.80ZM157.77 22L151.39 22L151.39 13.60L153.77 13.60L153.77 20.11L157.77 20.11L157.77 22ZM164.57 22L162.19 22L162.19 13.60L164.57 13.60L164.57 22ZM172.12 22L169.74 22L169.74 13.60L173.59 13.60Q174.72 13.60 175.57 13.98Q176.41 14.35 176.86 15.06Q177.32 15.76 177.32 16.71L177.32 16.71Q177.32 17.66 176.86 18.35Q176.41 19.05 175.57 19.42Q174.72 19.80 173.59 19.80L173.59 19.80L172.12 19.80L172.12 22ZM172.12 15.47L172.12 17.93L173.44 17.93Q174.17 17.93 174.55 17.61Q174.92 17.29 174.92 16.71L174.92 16.71Q174.92 16.12 174.55 15.80Q174.17 15.47 173.44 15.47L173.44 15.47L172.12 15.47ZM181.49 21.24L181.49 21.24L182.27 19.49Q182.83 19.86 183.57 20.09Q184.32 20.32 185.04 20.32L185.04 20.32Q186.40 20.32 186.41 19.64L186.41 19.64Q186.41 19.28 186.02 19.11Q185.63 18.93 184.76 18.74L184.76 18.74Q183.81 18.53 183.18 18.30Q182.54 18.06 182.09 17.55Q181.63 17.03 181.63 16.16L181.63 16.16Q181.63 15.39 182.05 14.77Q182.47 14.15 183.31 13.79Q184.14 13.43 185.35 13.43L185.35 13.43Q186.17 13.43 186.98 13.62Q187.78 13.80 188.40 14.17L188.40 14.17L187.67 15.93Q186.47 15.28 185.34 15.28L185.34 15.28Q184.63 15.28 184.30 15.49Q183.98 15.70 183.98 16.04L183.98 16.04Q183.98 16.37 184.37 16.54Q184.75 16.71 185.60 16.89L185.60 16.89Q186.56 17.10 187.19 17.33Q187.82 17.56 188.28 18.07Q188.75 18.58 188.75 19.46L188.75 19.46Q188.75 20.21 188.33 20.83Q187.91 21.44 187.07 21.80Q186.23 22.17 185.03 22.17L185.03 22.17Q184.01 22.17 183.04 21.92Q182.08 21.67 181.49 21.24ZM200.07 22L193.32 22L193.32 13.60L199.91 13.60L199.91 15.44L195.68 15.44L195.68 16.85L199.41 16.85L199.41 18.63L195.68 18.63L195.68 20.17L200.07 20.17L200.07 22Z" fill="#FFFFFF" x="126.31"/></svg>