<svg xmlns="http://www.w3.org/2000/svg" width="197.31" height="35" viewBox="0 0 197.31 35"><rect class="svg__rect" x="0" y="0" width="115.31" height="35" fill="#31C4F3"/><rect class="svg__rect" x="113.31" y="0" width="84" height="35" fill="#389AD5"/><path class="svg__text" d="M15.69 22L14.22 22L14.22 13.47L16.14 13.47L18.60 20.01L21.06 13.47L22.97 13.47L22.97 22L21.49 22L21.49 19.19L21.64 15.43L19.12 22L18.06 22L15.55 15.43L15.69 19.19L15.69 22ZM28.49 22L26.95 22L30.17 13.47L31.50 13.47L34.73 22L33.18 22L32.49 20.01L29.18 20.01L28.49 22ZM30.83 15.28L29.60 18.82L32.07 18.82L30.83 15.28ZM41.14 22L38.69 22L38.69 13.47L41.21 13.47Q42.34 13.47 43.21 13.97Q44.09 14.48 44.57 15.40Q45.05 16.33 45.05 17.52L45.05 17.52L45.05 17.95Q45.05 19.16 44.57 20.08Q44.08 21.00 43.19 21.50Q42.30 22 41.14 22L41.14 22ZM40.17 14.66L40.17 20.82L41.14 20.82Q42.30 20.82 42.93 20.09Q43.55 19.36 43.56 17.99L43.56 17.99L43.56 17.52Q43.56 16.13 42.96 15.40Q42.35 14.66 41.21 14.66L41.21 14.66L40.17 14.66ZM55.09 22L49.51 22L49.51 13.47L55.05 13.47L55.05 14.66L51.00 14.66L51.00 17.02L54.50 17.02L54.50 18.19L51.00 18.19L51.00 20.82L55.09 20.82L55.09 22ZM66.65 22L64.68 13.47L66.15 13.47L67.47 19.88L69.10 13.47L70.34 13.47L71.96 19.89L73.27 13.47L74.74 13.47L72.77 22L71.35 22L69.73 15.77L68.07 22L66.65 22ZM80.38 22L78.90 22L78.90 13.47L80.38 13.47L80.38 22ZM86.87 14.66L84.23 14.66L84.23 13.47L91.00 13.47L91.00 14.66L88.34 14.66L88.34 22L86.87 22L86.87 14.66ZM96.24 22L94.75 22L94.75 13.47L96.24 13.47L96.24 17.02L100.05 17.02L100.05 13.47L101.53 13.47L101.53 22L100.05 22L100.05 18.21L96.24 18.21L96.24 22Z" fill="#FFFFFF"/><path class="svg__text" d="M129.70 22L127.50 22L127.50 13.60L129.45 13.60L132.41 18.45L135.29 13.60L137.24 13.60L137.27 22L135.09 22L135.06 17.55L132.90 21.17L131.85 21.17L129.70 17.67L129.70 22ZM144.55 18.95L141.35 13.60L143.86 13.60L145.85 16.94L147.84 13.60L150.14 13.60L146.93 18.99L146.93 22L144.55 22L144.55 18.95ZM153.64 21.24L153.64 21.24L154.42 19.49Q154.98 19.86 155.73 20.09Q156.47 20.32 157.19 20.32L157.19 20.32Q158.56 20.32 158.56 19.64L158.56 19.64Q158.56 19.28 158.17 19.11Q157.78 18.93 156.92 18.74L156.92 18.74Q155.97 18.53 155.33 18.30Q154.70 18.06 154.24 17.55Q153.79 17.03 153.79 16.16L153.79 16.16Q153.79 15.39 154.21 14.77Q154.63 14.15 155.46 13.79Q156.30 13.43 157.50 13.43L157.50 13.43Q158.33 13.43 159.14 13.62Q159.94 13.80 160.56 14.17L160.56 14.17L159.82 15.93Q158.62 15.28 157.49 15.28L157.49 15.28Q156.78 15.28 156.46 15.49Q156.14 15.70 156.14 16.04L156.14 16.04Q156.14 16.37 156.52 16.54Q156.91 16.71 157.76 16.89L157.76 16.89Q158.72 17.10 159.35 17.33Q159.98 17.56 160.44 18.07Q160.90 18.58 160.90 19.46L160.90 19.46Q160.90 20.21 160.48 20.83Q160.06 21.44 159.22 21.80Q158.38 22.17 157.18 22.17L157.18 22.17Q156.16 22.17 155.20 21.92Q154.24 21.67 153.64 21.24ZM165.05 17.80L165.05 17.80Q165.05 16.55 165.65 15.55Q166.26 14.56 167.32 14.00Q168.38 13.43 169.71 13.43L169.71 13.43Q171.04 13.43 172.11 14.00Q173.17 14.56 173.78 15.55Q174.38 16.55 174.38 17.80L174.38 17.80Q174.38 19.22 173.61 20.30Q172.84 21.39 171.53 21.85L171.53 21.85Q171.77 22.12 172.00 22.23Q172.23 22.33 172.51 22.33L172.51 22.33Q173.22 22.33 173.79 21.75L173.79 21.75L174.82 22.97Q174.40 23.49 173.79 23.76Q173.18 24.03 172.46 24.03L172.46 24.03Q171.77 24.03 171.20 23.85Q170.64 23.67 170.07 23.25Q169.50 22.84 168.79 22.09L168.79 22.09Q167.70 21.91 166.85 21.31Q165.99 20.72 165.52 19.81Q165.05 18.89 165.05 17.80ZM167.45 17.80L167.45 17.80Q167.45 18.51 167.75 19.05Q168.05 19.60 168.57 19.90Q169.08 20.20 169.71 20.20L169.71 20.20Q170.35 20.20 170.87 19.90Q171.38 19.60 171.68 19.05Q171.98 18.51 171.98 17.80L171.98 17.80Q171.98 17.09 171.68 16.54Q171.38 16 170.87 15.70Q170.35 15.40 169.71 15.40L169.71 15.40Q169.08 15.40 168.56 15.70Q168.05 16 167.75 16.54Q167.45 17.09 167.45 17.80ZM185.50 22L179.11 22L179.11 13.60L181.49 13.60L181.49 20.11L185.50 20.11L185.50 22Z" fill="#FFFFFF" x="126.31"/></svg>